<mxfile host="Electron" agent="Mozilla/5.0 (Windows NT 10.0; Win64; x64) AppleWebKit/537.36 (KHTML, like Gecko) draw.io/26.1.1 Chrome/132.0.6834.210 Electron/34.3.3 Safari/537.36" version="26.1.1">
  <diagram name="Page-1" id="xZ5XlzPDIv5ZLaiBeDQX">
    <mxGraphModel dx="1684" dy="720" grid="1" gridSize="10" guides="1" tooltips="1" connect="1" arrows="1" fold="1" page="1" pageScale="1" pageWidth="570" pageHeight="940" math="0" shadow="0">
      <root>
        <mxCell id="0" />
        <mxCell id="1" parent="0" />
        <mxCell id="FJuJC0aMJo-np91SfjPI-1" value="&lt;span style=&quot;font-size: 18px;&quot;&gt;&lt;b&gt;Presentation(View)&lt;/b&gt;&lt;/span&gt;" style="rounded=1;whiteSpace=wrap;html=1;fillColor=none;" vertex="1" parent="1">
          <mxGeometry x="50" y="220" width="200" height="50" as="geometry" />
        </mxCell>
        <mxCell id="FJuJC0aMJo-np91SfjPI-2" value="&lt;span style=&quot;font-size: 18px;&quot;&gt;&lt;b&gt;Controller&lt;/b&gt;&lt;/span&gt;" style="rounded=1;whiteSpace=wrap;html=1;fillColor=none;" vertex="1" parent="1">
          <mxGeometry x="500" y="220" width="160" height="50" as="geometry" />
        </mxCell>
        <mxCell id="FJuJC0aMJo-np91SfjPI-3" value="&lt;span style=&quot;font-size: 18px;&quot;&gt;&lt;b&gt;Abstraction(Model)&lt;/b&gt;&lt;/span&gt;" style="rounded=1;whiteSpace=wrap;html=1;fillColor=none;" vertex="1" parent="1">
          <mxGeometry x="280" y="40" width="210" height="50" as="geometry" />
        </mxCell>
        <mxCell id="FJuJC0aMJo-np91SfjPI-4" value="" style="points=[[0.35,0,0],[0.98,0.51,0],[1,0.71,0],[0.67,1,0],[0,0.795,0],[0,0.65,0]];verticalLabelPosition=bottom;sketch=0;html=1;verticalAlign=top;aspect=fixed;align=center;pointerEvents=1;shape=mxgraph.cisco19.user;fillColor=#005073;strokeColor=none;" vertex="1" parent="1">
          <mxGeometry x="120" y="370" width="90" height="90" as="geometry" />
        </mxCell>
        <mxCell id="FJuJC0aMJo-np91SfjPI-5" value="" style="endArrow=open;html=1;rounded=0;endFill=0;bendable=0;endSize=14;entryX=0.5;entryY=1;entryDx=0;entryDy=0;" edge="1" parent="1" target="FJuJC0aMJo-np91SfjPI-1">
          <mxGeometry width="50" height="50" relative="1" as="geometry">
            <mxPoint x="150" y="360" as="sourcePoint" />
            <mxPoint x="310" y="240" as="targetPoint" />
          </mxGeometry>
        </mxCell>
        <mxCell id="FJuJC0aMJo-np91SfjPI-6" value="" style="endArrow=open;html=1;rounded=0;endFill=0;bendable=0;endSize=14;entryX=0;entryY=0.5;entryDx=0;entryDy=0;exitX=1;exitY=0.5;exitDx=0;exitDy=0;" edge="1" parent="1" source="FJuJC0aMJo-np91SfjPI-1" target="FJuJC0aMJo-np91SfjPI-2">
          <mxGeometry width="50" height="50" relative="1" as="geometry">
            <mxPoint x="180" y="370" as="sourcePoint" />
            <mxPoint x="180" y="280" as="targetPoint" />
          </mxGeometry>
        </mxCell>
        <mxCell id="FJuJC0aMJo-np91SfjPI-7" value="" style="endArrow=open;html=1;rounded=0;endFill=0;bendable=0;endSize=14;entryX=1;entryY=1;entryDx=0;entryDy=0;exitX=0.5;exitY=0;exitDx=0;exitDy=0;" edge="1" parent="1" source="FJuJC0aMJo-np91SfjPI-2" target="FJuJC0aMJo-np91SfjPI-3">
          <mxGeometry width="50" height="50" relative="1" as="geometry">
            <mxPoint x="260" y="255" as="sourcePoint" />
            <mxPoint x="510" y="255" as="targetPoint" />
          </mxGeometry>
        </mxCell>
        <mxCell id="FJuJC0aMJo-np91SfjPI-9" value="User&amp;nbsp;interacts" style="text;html=1;align=center;verticalAlign=middle;whiteSpace=wrap;rounded=0;" vertex="1" parent="1">
          <mxGeometry x="190" y="340" width="90" height="30" as="geometry" />
        </mxCell>
        <mxCell id="FJuJC0aMJo-np91SfjPI-10" value="User&#39;s Request + Triggers Appropriate Controller" style="text;html=1;align=center;verticalAlign=middle;whiteSpace=wrap;rounded=0;" vertex="1" parent="1">
          <mxGeometry x="260" y="207" width="210" height="30" as="geometry" />
        </mxCell>
        <mxCell id="FJuJC0aMJo-np91SfjPI-11" value="Changing Model Accordingly" style="text;html=1;align=center;verticalAlign=middle;whiteSpace=wrap;rounded=0;rotation=0;" vertex="1" parent="1">
          <mxGeometry x="530" y="140" width="210" height="30" as="geometry" />
        </mxCell>
        <mxCell id="FJuJC0aMJo-np91SfjPI-12" value="Updates View" style="text;html=1;align=center;verticalAlign=middle;whiteSpace=wrap;rounded=0;rotation=0;" vertex="1" parent="1">
          <mxGeometry x="-60" y="230" width="80" height="30" as="geometry" />
        </mxCell>
        <mxCell id="FJuJC0aMJo-np91SfjPI-14" value="" style="endArrow=open;html=1;rounded=0;endFill=0;bendable=0;endSize=14;entryX=1;entryY=0.75;entryDx=0;entryDy=0;exitX=0;exitY=0.75;exitDx=0;exitDy=0;" edge="1" parent="1" source="FJuJC0aMJo-np91SfjPI-2" target="FJuJC0aMJo-np91SfjPI-1">
          <mxGeometry width="50" height="50" relative="1" as="geometry">
            <mxPoint x="510" y="255" as="sourcePoint" />
            <mxPoint x="260" y="255" as="targetPoint" />
          </mxGeometry>
        </mxCell>
        <mxCell id="FJuJC0aMJo-np91SfjPI-15" value="Notifies The View" style="text;html=1;align=center;verticalAlign=middle;whiteSpace=wrap;rounded=0;" vertex="1" parent="1">
          <mxGeometry x="270" y="270" width="210" height="30" as="geometry" />
        </mxCell>
        <mxCell id="FJuJC0aMJo-np91SfjPI-16" value="" style="endArrow=open;html=1;rounded=0;endFill=0;bendable=0;endSize=14;entryX=1;entryY=1;entryDx=0;entryDy=0;exitX=0.882;exitY=1.011;exitDx=0;exitDy=0;exitPerimeter=0;" edge="1" parent="1" source="FJuJC0aMJo-np91SfjPI-3">
          <mxGeometry width="50" height="50" relative="1" as="geometry">
            <mxPoint x="470" y="120" as="sourcePoint" />
            <mxPoint x="560" y="220" as="targetPoint" />
          </mxGeometry>
        </mxCell>
        <mxCell id="FJuJC0aMJo-np91SfjPI-17" value="Notifies The Controller" style="text;html=1;align=center;verticalAlign=middle;whiteSpace=wrap;rounded=0;" vertex="1" parent="1">
          <mxGeometry x="360" y="140" width="150" height="30" as="geometry" />
        </mxCell>
      </root>
    </mxGraphModel>
  </diagram>
</mxfile>
